IKResults
version=1
nRows=49
nColumns=24
inDegrees=yes

Units are S.I. units (second, meters, Newtons, ...)
If the header above contains a line with 'inDegrees', this indicates whether rotational values are in degrees (yes) or radians (no).

endheader
time	pelvis_tilt	pelvis_list	pelvis_rotation	pelvis_tx	pelvis_ty	pelvis_tz	hip_flexion_r	hip_adduction_r	hip_rotation_r	knee_angle_r	ankle_angle_r	subtalar_angle_r	mtp_angle_r	hip_flexion_l	hip_adduction_l	hip_rotation_l	knee_angle_l	ankle_angle_l	subtalar_angle_l	mtp_angle_l	lumbar_extension	lumbar_bending	lumbar_rotation
4.625000	13.173264	1.543829	-180.944789	0.296586	0.606502	-1.201052	68.204269	-29.731325	-15.721213	-93.387158	32.334687	8.340879	0.000000	69.976543	-31.903370	-11.961033	-94.406524	34.697925	14.537614	0.000000	-11.289455	2.418562	3.592070
4.630000	13.232141	1.538911	-181.020631	0.295894	0.611773	-1.201049	67.522104	-29.514542	-16.093835	-92.328083	31.922525	8.343017	0.000000	69.204498	-31.791540	-12.408850	-93.335379	34.313550	14.367124	0.000000	-11.127949	2.431716	3.632219
4.635000	13.306746	1.537263	-181.076917	0.295148	0.617016	-1.200964	66.844174	-29.308036	-16.463709	-91.254348	31.485638	8.344341	0.000000	68.471755	-31.654155	-12.819411	-92.289767	33.920802	14.275671	0.000000	-10.944239	2.434380	3.705536
4.640000	13.328705	1.516426	-181.116213	0.294405	0.622229	-1.200989	66.114126	-29.123182	-16.825870	-90.182783	31.090181	8.370973	0.000000	67.694393	-31.528578	-13.236892	-91.284303	33.539086	14.281075	0.000000	-10.815830	2.459778	3.651321
4.645000	13.378699	1.475235	-181.124056	0.293596	0.627463	-1.200956	65.401801	-28.975351	-17.184535	-89.089328	30.681924	8.409808	0.000000	66.908012	-31.331253	-13.681295	-90.193229	33.122793	14.201324	0.000000	-10.658212	2.427427	3.618742
4.650000	13.430118	1.458692	-181.142335	0.292834	0.632626	-1.200983	64.697969	-28.794329	-17.550425	-88.006825	30.269222	8.445911	0.000000	66.151909	-31.160531	-14.112474	-89.081352	32.709092	14.121023	0.000000	-10.499016	2.420918	3.590336
4.655000	13.467509	1.437018	-181.182905	0.291986	0.637787	-1.200953	63.989436	-28.613611	-17.903438	-86.933912	29.876239	8.519084	0.000000	65.379109	-31.013469	-14.544950	-88.019767	32.285977	14.070309	0.000000	-10.329710	2.400546	3.656722
4.660000	13.495202	1.424614	-181.205112	0.291117	0.642946	-1.200921	63.249656	-28.445253	-18.289338	-85.842538	29.466925	8.599768	0.000000	64.604650	-30.865550	-14.971863	-86.947741	31.854058	14.046082	0.000000	-10.181047	2.405559	3.642439
4.665000	13.552113	1.333023	-181.212179	0.290386	0.647971	-1.200840	62.603434	-28.325863	-18.575494	-84.751875	29.045327	8.680902	0.000000	64.001372	-30.610087	-15.010157	-85.771592	30.916852	14.369002	0.000000	-10.016975	2.375370	3.503238
4.670000	13.581344	1.325478	-181.218194	0.289490	0.653024	-1.200877	61.852248	-28.154638	-18.971073	-83.647084	28.633781	8.751291	0.000000	63.223241	-30.443898	-15.456512	-84.625024	30.533824	14.321854	0.000000	-9.863363	2.394758	3.460192
4.675000	13.600247	1.260689	-181.242000	0.288596	0.658050	-1.200892	61.146347	-28.015244	-19.306777	-82.561085	28.212498	8.812902	0.000000	62.415242	-30.257635	-15.935107	-83.542702	30.033658	14.295448	0.000000	-9.721497	2.347256	3.445714
4.680000	13.621463	1.245258	-181.261864	0.287637	0.663004	-1.200887	60.416623	-27.853565	-19.698331	-81.479227	27.794472	8.886715	0.000000	61.636491	-30.101085	-16.401066	-82.418503	29.616615	14.202348	0.000000	-9.565116	2.351413	3.440076
4.685000	13.618490	1.219188	-181.297100	0.286610	0.668006	-1.200884	59.677588	-27.685556	-20.064565	-80.385488	27.345762	8.968391	0.000000	60.825710	-29.952460	-16.837428	-81.371282	29.127303	14.177792	0.000000	-9.428836	2.344545	3.473342
4.690000	13.636638	1.194517	-181.325746	0.285649	0.672904	-1.200926	58.954826	-27.504696	-20.424143	-79.292088	26.928178	9.057520	0.000000	60.046128	-29.790485	-17.296413	-80.242487	28.716123	14.071375	0.000000	-9.282253	2.327946	3.483030
4.695000	13.640149	1.168409	-181.348846	0.284645	0.677812	-1.201003	58.202970	-27.330130	-20.794101	-78.179456	26.490442	9.195578	0.000000	59.192435	-29.611627	-17.872002	-79.108115	28.328931	13.855041	0.000000	-9.147362	2.313756	3.469923
4.700000	13.653262	1.120203	-181.334427	0.283542	0.682741	-1.201055	57.447952	-27.194489	-21.159325	-77.058941	26.067546	9.342544	0.000000	58.454373	-29.402948	-18.168348	-78.018600	27.743940	13.997380	0.000000	-9.038038	2.309639	3.302998
4.705000	13.689372	1.127290	-181.365390	0.282638	0.687390	-1.201148	56.752025	-26.975463	-21.514369	-75.959491	25.629270	9.505163	0.000000	57.758332	-29.270845	-18.553002	-76.994382	27.245257	13.972297	0.000000	-8.833626	2.273996	3.454413
4.710000	13.644158	1.129308	-181.398690	0.281508	0.692242	-1.201236	55.957779	-26.753210	-21.875654	-74.850390	25.191523	9.571550	0.000000	56.842518	-29.113496	-19.123609	-75.760676	26.926178	13.997670	0.000000	-8.735713	2.296374	3.457980
4.715000	13.633403	1.123697	-181.408823	0.280463	0.696930	-1.201202	55.214614	-26.570697	-22.241060	-73.754785	24.749212	9.669861	0.000000	56.073088	-28.914258	-19.503642	-74.711231	26.301772	13.683740	0.000000	-8.565452	2.168366	3.850199
4.720000	13.614659	1.097459	-181.422410	0.279417	0.701573	-1.201296	54.470543	-26.372120	-22.566348	-72.645452	24.304525	9.771619	0.000000	55.276513	-28.712633	-19.898386	-73.563905	25.914505	13.717940	0.000000	-8.448837	2.141082	3.823761
4.725000	13.621147	1.078716	-181.418555	0.278403	0.706165	-1.201367	53.744777	-26.170525	-22.897333	-71.517877	23.848096	9.874121	0.000000	54.544241	-28.505982	-20.261980	-72.482115	25.544833	13.892033	0.000000	-8.308192	2.110957	3.851988
4.730000	13.595553	1.059634	-181.412070	0.277379	0.710642	-1.201468	53.006731	-25.969604	-23.215418	-70.418651	23.413707	9.935581	0.000000	53.776419	-28.284591	-20.654408	-71.373035	25.001311	13.936654	0.000000	-8.232523	2.055262	3.892702
4.735000	13.597961	1.085970	-181.436442	0.276322	0.715155	-1.201562	52.273478	-25.698739	-23.551414	-69.280872	22.946502	10.012316	0.000000	53.051096	-28.108335	-20.980665	-70.275437	24.493770	13.904649	0.000000	-8.123818	2.034834	3.993135
4.740000	13.636483	1.109692	-181.465596	0.275227	0.719512	-1.201565	51.593901	-25.434350	-23.878411	-68.160651	22.489919	10.039449	0.000000	52.377160	-27.929178	-21.273507	-69.205567	24.037947	13.947406	0.000000	-7.959786	2.055099	4.072706
4.745000	13.576586	1.105664	-181.453922	0.274221	0.723921	-1.201725	50.826566	-25.215104	-24.211151	-67.066988	22.045539	10.085376	0.000000	51.597716	-27.697221	-21.614182	-68.092010	23.523716	13.849972	0.000000	-7.927215	2.013615	4.082627
4.750000	13.585545	1.109331	-181.466611	0.273185	0.728197	-1.201768	50.125971	-24.956329	-24.504361	-65.931286	21.577221	10.125856	0.000000	50.896871	-27.463686	-21.903184	-66.998204	23.051556	13.786363	0.000000	-7.807554	2.013981	4.107096
4.755000	13.565764	1.080024	-181.441158	0.272166	0.732403	-1.201887	49.395369	-24.743367	-24.824383	-64.804930	21.143607	10.121145	0.000000	50.168737	-27.191562	-22.207004	-65.891632	22.565139	13.727372	0.000000	-7.731481	1.958988	4.085446
4.760000	13.603938	1.088054	-181.463676	0.271011	0.736653	-1.202024	48.723327	-24.466441	-25.121061	-63.664169	20.655392	10.129501	0.000000	49.477071	-26.978654	-22.523493	-64.760945	22.073715	13.690492	0.000000	-7.669610	2.232745	3.441003
4.765000	13.536215	1.091495	-181.436488	0.270152	0.740671	-1.202081	48.031655	-24.276038	-25.488089	-62.708709	20.058361	10.004599	0.000000	48.765795	-26.712145	-22.753102	-63.695707	21.576579	13.567392	0.000000	-7.571361	1.943394	4.130920
4.770000	13.595857	1.109170	-181.480538	0.268973	0.744782	-1.202165	47.366046	-23.943643	-25.717413	-61.471195	19.678776	10.106312	0.000000	48.108808	-26.515309	-23.064194	-62.585485	21.069211	13.507709	0.000000	-7.497484	2.214888	3.545385
4.775000	13.539939	1.100179	-181.446909	0.267963	0.748745	-1.202357	46.625770	-23.726047	-26.040519	-60.383209	19.232717	10.147196	0.000000	47.395469	-26.243506	-23.291724	-61.495159	20.571935	13.435840	0.000000	-7.462946	2.241983	3.385978
4.780000	13.553746	1.100134	-181.442304	0.266950	0.752597	-1.202421	45.992163	-23.496605	-26.382877	-59.348808	18.591736	10.068816	0.000000	46.746127	-25.989211	-23.546664	-60.404445	20.089500	13.362681	0.000000	-7.371164	2.196181	3.418175
4.785000	13.563355	1.085748	-181.427049	0.265965	0.756331	-1.202541	45.301518	-23.234344	-26.600282	-58.143661	18.269134	10.255527	0.000000	46.109386	-25.715752	-23.777755	-59.322976	19.603483	13.283970	0.000000	-7.280542	2.166757	3.376971
4.790000	13.574873	1.094055	-181.434794	0.264885	0.760092	-1.202638	44.645459	-22.963640	-26.874802	-57.033231	17.813210	10.317861	0.000000	45.463666	-25.470335	-24.010056	-58.236139	19.085365	13.169080	0.000000	-7.183724	2.229845	3.249035
4.795000	13.589460	1.086859	-181.415921	0.263993	0.763604	-1.202705	44.038571	-22.735794	-27.146481	-55.983230	17.349891	10.341135	0.000000	44.869859	-25.211002	-24.235119	-57.198832	18.568469	13.069258	0.000000	-7.080319	2.167841	3.341957
4.800000	13.606479	1.112310	-181.441535	0.262965	0.767152	-1.202818	43.413138	-22.444145	-27.416191	-54.900935	16.899739	10.362892	0.000000	44.254350	-24.994111	-24.443764	-56.141257	18.063057	12.952116	0.000000	-6.984952	2.209120	3.336589
4.805000	13.603999	1.103183	-181.440381	0.261948	0.770586	-1.202871	42.765296	-22.190363	-27.678913	-53.803821	16.436270	10.377304	0.000000	43.628576	-24.733309	-24.662193	-55.107014	17.604712	12.863311	0.000000	-6.886480	2.178838	3.361972
4.810000	13.627791	1.101078	-181.406169	0.260990	0.773897	-1.203035	42.163824	-21.952153	-27.940353	-52.748535	15.975328	10.409463	0.000000	43.066121	-24.486400	-24.851513	-54.107213	17.129353	12.838317	0.000000	-6.767464	2.152754	3.320010
4.815000	13.650818	1.120138	-181.402135	0.259923	0.777192	-1.203159	41.556247	-21.670797	-28.181007	-51.680889	15.521618	10.455696	0.000000	42.484456	-24.245183	-25.023939	-53.069751	16.672700	12.745961	0.000000	-6.656298	2.180939	3.257803
4.820000	13.671942	1.138712	-181.398800	0.258904	0.780348	-1.203220	40.965572	-21.415424	-28.458169	-50.650880	15.095624	10.510980	0.000000	41.929057	-24.023359	-25.212700	-52.076405	16.191615	12.650820	0.000000	-6.527834	2.176818	3.281447
4.825000	13.699939	1.146580	-181.419615	0.257901	0.783439	-1.203288	40.427142	-21.138887	-28.631810	-49.640464	14.632020	10.516402	0.000000	41.365551	-23.789277	-25.418264	-51.052365	15.695364	12.491503	0.000000	-6.400491	2.176992	3.310367
4.830000	13.598845	1.040957	-181.294457	0.256702	0.786566	-1.202984	39.708860	-21.118753	-28.947245	-48.664526	14.223070	10.611172	0.000000	40.675200	-23.339458	-25.549291	-50.050892	15.259290	12.379094	0.000000	-6.405537	2.116396	3.098658
4.835000	13.737944	1.131277	-181.368622	0.256002	0.789194	-1.203392	39.308653	-20.699952	-29.107310	-47.654073	13.782030	10.666238	0.000000	40.301184	-23.262178	-25.727508	-49.116751	14.785678	12.303355	0.000000	-6.072902	1.950899	3.758456
4.840000	13.712170	1.104787	-181.334314	0.255042	0.791960	-1.203598	38.727841	-20.480264	-29.295174	-46.691346	13.368248	10.600337	0.000000	39.732008	-22.997532	-25.882065	-48.171018	14.341096	12.222515	0.000000	-6.017277	1.893115	3.695229
4.845000	13.774711	1.130974	-181.364020	0.254015	0.794641	-1.203652	38.232485	-20.184899	-29.486038	-45.691998	12.937553	10.589309	0.000000	39.248219	-22.801309	-26.040865	-47.234811	13.902797	12.115951	0.000000	-5.840875	1.943035	3.700560
4.850000	13.638811	1.042955	-181.279502	0.252786	0.797387	-1.203416	37.522007	-20.112084	-29.751980	-44.766453	12.577469	10.644314	0.000000	38.545694	-22.415119	-26.185191	-46.281809	13.499256	12.005181	0.000000	-5.877389	1.867381	3.592771
4.855000	13.745428	1.074428	-181.301123	0.251807	0.799844	-1.203492	37.095334	-19.816738	-29.920035	-43.804977	12.140736	10.706323	0.000000	38.127418	-22.225201	-26.323423	-45.354817	13.037436	11.946700	0.000000	-5.658002	1.911476	3.578570
4.860000	13.699965	1.040600	-181.260614	0.250857	0.802266	-1.203693	36.523430	-19.624079	-30.109426	-42.892617	11.744940	10.721003	0.000000	37.580348	-21.960848	-26.446801	-44.464870	12.633514	11.857996	0.000000	-5.617115	1.846318	3.500545
4.865000	13.732258	1.039075	-181.279056	0.249846	0.804615	-1.203745	36.037040	-19.364856	-30.222836	-41.950370	11.337560	10.769684	0.000000	37.099015	-21.739888	-26.576248	-43.577918	12.253060	11.782703	0.000000	-5.473272	1.850370	3.473889
